<?xml version="1.0" standalone="no"?>
<!DOCTYPE svg PUBLIC "-//W3C//DTD SVG 20010904//EN"
 "http://www.w3.org/TR/2001/REC-SVG-20010904/DTD/svg10.dtd">
<svg version="1.0" xmlns="http://www.w3.org/2000/svg"
 width="1480.000000pt" height="985.000000pt" viewBox="0 0 1480.000000 985.000000"
 preserveAspectRatio="xMidYMid meet">

<g transform="translate(0.000000,985.000000) scale(0.100000,-0.100000)"
fill="#000000" stroke="none">
<path d="M10925 8848 c11 -8 142 -81 290 -163 149 -82 396 -219 550 -305 l280
-156 0 -497 c0 -400 2 -494 13 -480 9 13 12 129 12 497 0 265 -4 486 -8 492
-12 17 -1103 617 -1131 622 -25 4 -25 4 -6 -10z"/>
<path d="M6750 8275 c-324 -324 -351 -354 -341 -374 7 -11 14 -21 18 -21 10 0
237 -61 241 -65 2 -2 19 -71 38 -155 18 -83 41 -164 50 -179 19 -32 98 -82
167 -105 146 -49 211 -61 342 -61 179 0 269 28 429 133 43 29 81 46 100 46 27
1 31 5 31 28 1 16 5 32 10 37 9 9 317 -164 765 -429 63 -37 196 -115 295 -172
99 -58 329 -191 510 -297 201 -116 341 -204 358 -224 15 -17 32 -49 38 -69 10
-40 17 -13 -136 -558 -74 -266 -149 -535 -324 -1170 -94 -338 -177 -627 -185
-642 -18 -33 0 -40 27 -10 20 22 22 27 91 277 30 110 130 470 221 800 91 330
209 755 261 945 87 312 95 347 85 381 -6 20 -20 48 -31 62 -22 27 -16 24
-1155 687 -418 243 -764 446 -768 450 -5 4 1 26 13 48 30 57 27 101 -14 280
-20 84 -36 162 -36 173 0 11 46 64 110 128 109 108 131 143 93 155 -10 3 -223
60 -473 126 -250 66 -460 122 -466 125 -6 2 -170 -156 -364 -350z"/>
<path d="M11540 8310 c0 -50 2 -58 16 -53 9 3 19 0 24 -6 4 -7 10 11 13 41 6
43 4 55 -10 66 -34 25 -43 15 -43 -48z"/>
<path d="M11320 8316 c0 -3 14 -12 30 -21 17 -9 30 -13 30 -11 0 3 -13 12 -30
21 -16 9 -30 13 -30 11z"/>
<path d="M11320 8276 c0 -2 7 -7 16 -10 8 -3 12 -2 9 4 -6 10 -25 14 -25 6z"/>
<path d="M11410 8265 c0 -7 81 -47 86 -43 2 3 -17 14 -41 26 -25 12 -45 20
-45 17z"/>
<path d="M11365 8250 c3 -5 11 -10 16 -10 6 0 7 5 4 10 -3 6 -11 10 -16 10 -6
0 -7 -4 -4 -10z"/>
<path d="M11315 8240 c3 -5 8 -10 11 -10 2 0 4 5 4 10 0 6 -5 10 -11 10 -5 0
-7 -4 -4 -10z"/>
<path d="M11355 8223 c14 -14 153 -89 140 -75 -5 5 -41 27 -80 48 -38 20 -65
33 -60 27z"/>
<path d="M11420 8226 c0 -2 26 -19 58 -37 31 -17 73 -41 92 -52 21 -12 29 -14
20 -5 -16 16 -170 101 -170 94z"/>
<path d="M11334 8196 c11 -9 24 -16 30 -16 12 0 7 5 -24 19 -24 11 -24 11 -6
-3z"/>
<path d="M11520 8205 c0 -2 18 -14 40 -25 22 -11 40 -18 40 -15 0 2 -18 14
-40 25 -22 11 -40 18 -40 15z"/>
<path d="M11310 8176 c0 -2 16 -13 36 -25 19 -12 32 -16 29 -11 -7 11 -65 43
-65 36z"/>
<path d="M11415 8150 c17 -11 35 -20 40 -20 6 0 -5 9 -23 20 -42 26 -56 26
-17 0z"/>
<path d="M11320 8130 c23 -17 110 -61 110 -55 0 2 -24 17 -52 32 -60 32 -80
40 -58 23z"/>
<path d="M11400 8127 c0 -3 36 -25 80 -50 44 -25 80 -42 80 -39 0 8 -160 96
-160 89z"/>
<path d="M11530 8125 c0 -7 61 -37 66 -33 2 3 -12 12 -31 21 -19 9 -35 15 -35
12z"/>
<path d="M11490 8110 c23 -17 110 -61 110 -55 0 2 -24 17 -52 32 -60 32 -80
40 -58 23z"/>
<path d="M3633 8070 c-14 -17 -36 -30 -49 -30 -27 0 -54 -34 -54 -68 l0 -23
30 22 c42 32 49 16 10 -21 -29 -28 -32 -34 -26 -71 5 -31 2 -49 -15 -79 -21
-37 -22 -49 -3 -123 5 -21 0 -35 -20 -61 -14 -19 -26 -37 -26 -40 0 -3 15 -6
34 -6 l34 0 11 83 c17 116 26 139 73 181 39 36 40 38 36 88 -5 47 -3 54 24 80
33 32 29 31 62 18 22 -8 26 -16 26 -48 0 -35 -20 -77 -44 -94 -7 -5 -6 -11 4
-18 23 -15 27 -13 50 36 20 41 21 50 10 87 -13 44 -45 87 -66 87 -6 0 -14 7
-18 15 -9 25 -54 17 -83 -15z"/>
<path d="M11320 8090 c8 -5 20 -10 25 -10 6 0 3 5 -5 10 -8 5 -19 10 -25 10
-5 0 -3 -5 5 -10z"/>
<path d="M11310 8066 c0 -3 9 -10 20 -16 11 -6 20 -8 20 -6 0 3 -9 10 -20 16
-11 6 -20 8 -20 6z"/>
<path d="M11380 8060 c23 -17 110 -61 110 -55 0 2 -24 17 -52 32 -60 32 -80
40 -58 23z"/>
<path d="M11475 8043 c17 -8 51 -28 78 -44 26 -16 47 -25 47 -21 0 8 -133 82
-146 82 -5 -1 5 -8 21 -17z"/>
<path d="M11387 8019 c7 -7 15 -10 18 -7 3 3 -2 9 -12 12 -14 6 -15 5 -6 -5z"/>
<path d="M11350 8005 c0 -2 18 -14 40 -25 22 -11 40 -18 40 -15 0 2 -18 14
-40 25 -22 11 -40 18 -40 15z"/>
<path d="M11446 7985 c10 -8 24 -14 29 -14 6 0 1 6 -9 14 -11 8 -24 15 -30 15
-5 0 -1 -7 10 -15z"/>
<path d="M11311 7986 c10 -9 69 -36 69 -32 0 6 -55 36 -66 36 -4 0 -5 -2 -3
-4z"/>
<path d="M11551 7966 c2 -2 15 -9 29 -15 24 -11 24 -11 6 3 -16 13 -49 24 -35
12z"/>
<path d="M11501 7957 c16 -13 99 -57 99 -53 0 7 -84 56 -95 56 -5 0 -6 -1 -4
-3z"/>
<path d="M11451 7946 c10 -9 69 -36 69 -32 0 6 -55 36 -66 36 -4 0 -5 -2 -3
-4z"/>
<path d="M11410 7930 c8 -5 20 -10 25 -10 6 0 3 5 -5 10 -8 5 -19 10 -25 10
-5 0 -3 -5 5 -10z"/>
<path d="M11365 7923 c18 -17 127 -75 120 -63 -3 6 -34 24 -68 41 -34 17 -57
27 -52 22z"/>
<path d="M11335 7900 c17 -11 35 -20 40 -20 6 0 -5 9 -23 20 -42 26 -56 26
-17 0z"/>
<path d="M11470 7899 c25 -17 130 -70 130 -65 0 5 -128 76 -138 76 -4 0 0 -5
8 -11z"/>
<path d="M11530 7905 c0 -7 61 -37 66 -33 2 3 -12 12 -31 21 -19 9 -35 15 -35
12z"/>
<path d="M11320 7876 c0 -7 130 -79 135 -75 2 2 -28 21 -66 42 -38 20 -69 35
-69 33z"/>
<path d="M11395 7872 c17 -17 115 -72 115 -64 0 4 -28 22 -63 40 -34 19 -57
29 -52 24z"/>
<path d="M11522 7834 c10 -10 20 -15 24 -12 3 4 -5 12 -18 18 -22 12 -22 12
-6 -6z"/>
<path d="M11560 7816 c0 -3 9 -10 20 -16 11 -6 20 -8 20 -6 0 3 -9 10 -20 16
-11 6 -20 8 -20 6z"/>
<path d="M3997 7785 l-39 -22 59 -35 c72 -44 103 -60 103 -54 0 2 -20 16 -45
30 -25 15 -45 31 -45 36 0 5 -6 7 -14 4 -10 -4 -14 1 -13 15 1 24 8 26 25 9 9
-9 12 -9 12 0 0 7 -6 12 -12 12 -8 0 -5 7 6 15 30 22 6 16 -37 -10z"/>
<path d="M4080 7795 c14 -17 13 -18 -3 -12 -11 4 -16 3 -12 -3 3 -6 2 -10 -3
-10 -11 0 -25 -30 -18 -37 3 -3 18 8 34 25 28 29 29 29 8 42 -20 12 -20 12 -6
-5z"/>
<path d="M11530 7795 c0 -7 61 -37 66 -33 2 3 -12 12 -31 21 -19 9 -35 15 -35
12z"/>
<path d="M11480 7786 c0 -3 14 -12 30 -21 17 -9 30 -13 30 -11 0 3 -13 12 -30
21 -16 9 -30 13 -30 11z"/>
<path d="M11560 7746 c0 -3 9 -10 20 -16 11 -6 20 -8 20 -6 0 3 -9 10 -20 16
-11 6 -20 8 -20 6z"/>
<path d="M10137 7731 c-88 -9 -104 -40 -67 -125 18 -42 22 -46 55 -46 32 0 35
2 35 30 0 17 5 30 10 30 6 0 10 -4 10 -10 0 -5 5 -10 10 -10 6 0 10 6 8 13 -1
6 8 31 20 54 23 44 21 74 -7 72 -9 -1 -42 -5 -74 -8z"/>
<path d="M4232 7719 c-13 -5 -29 -6 -35 -2 -7 3 -9 3 -5 -2 8 -8 -33 -45 -50
-45 -5 0 -13 -7 -16 -16 -5 -14 -4 -15 8 -5 8 7 43 28 78 47 60 32 70 43 20
23z"/>
<path d="M3544 7386 c-19 -75 76 -154 281 -234 l50 -20 -3 -51 -4 -51 46 -12
c25 -7 46 -16 46 -22 0 -5 -13 -33 -30 -62 -16 -29 -34 -74 -40 -100 -10 -43
-9 -50 16 -87 l26 -40 -37 7 c-54 10 -69 23 -83 67 -11 34 -10 44 6 77 11 20
22 52 25 70 l7 33 -53 -29 c-173 -95 -247 -138 -247 -142 0 -3 20 -16 45 -29
l45 -24 0 -103 c0 -57 -2 -104 -4 -104 -11 0 -96 53 -92 58 3 2 16 -2 28 -10
25 -16 58 -29 58 -24 0 9 -82 46 -90 41 -8 -5 -60 20 -137 67 -18 11 -40 18
-49 16 -13 -2 105 -76 274 -169 l42 -24 53 29 c47 26 227 129 662 381 88 51
174 101 192 111 17 11 69 41 115 68 45 27 93 55 106 63 21 13 22 20 22 122 0
92 -3 110 -18 124 -10 10 -23 17 -28 17 -6 0 -113 -59 -240 -131 -126 -72
-254 -145 -284 -161 -30 -17 -59 -34 -64 -38 -13 -13 26 -110 53 -131 13 -11
32 -19 42 -19 36 0 28 -19 -16 -35 -45 -18 -45 -18 -84 8 -33 22 -39 32 -43
72 -9 76 -13 77 -128 7 -42 -26 -50 -27 -50 -6 0 11 6 14 23 8 12 -3 19 -3 15
1 -5 5 10 16 32 26 52 23 52 34 0 13 -21 -9 -45 -14 -52 -11 -7 3 -3 6 9 6 20
1 21 4 13 26 -7 18 -4 37 12 77 27 66 27 67 39 45 19 -34 126 -6 115 31 -26
90 -36 146 -27 155 6 6 32 23 58 40 26 16 41 27 33 24 -8 -2 -93 -52 -188
-111 -94 -58 -175 -106 -178 -106 -9 0 -274 152 -274 157 0 3 8 12 18 21 10
10 16 16 14 15 -3 -1 -20 4 -38 12 -32 13 -34 13 -40 -9z m253 -488 c-3 -8 -6
-5 -6 6 -1 11 2 17 5 13 3 -3 4 -12 1 -19z"/>
<path d="M5142 7355 c-74 -32 -40 -85 54 -85 41 0 59 5 74 20 25 25 25 33 3
52 -36 31 -52 29 -55 -5 -4 -43 -31 -43 -38 0 -5 31 -5 31 -38 18z"/>
<path d="M11063 7208 c-11 -13 -25 -38 -31 -56 -6 -18 -20 -46 -31 -61 -16
-21 -22 -50 -26 -121 l-5 -93 40 -62 c25 -39 38 -68 34 -79 -8 -20 -3 -20 41
-2 41 18 57 45 49 86 -6 25 -2 36 21 60 17 17 25 35 22 44 -4 9 3 24 16 37 12
11 22 23 23 27 0 4 4 22 8 40 5 22 4 38 -5 48 -11 13 -8 20 20 46 44 41 40 73
-9 73 -19 0 -49 8 -67 18 -43 23 -75 22 -100 -5z m147 -57 c0 -26 -37 -88 -46
-78 -5 4 36 107 42 107 2 0 4 -13 4 -29z"/>
<path d="M10405 7170 c-16 -4 -42 -5 -57 -2 -26 4 -27 2 -30 -43 -4 -63 -34
-87 -118 -93 -65 -5 -110 8 -147 41 l-23 20 0 -31 c0 -35 28 -67 68 -77 15 -4
35 -14 45 -23 35 -31 128 -27 277 13 74 19 142 37 150 38 12 2 16 -13 18 -68
l3 -70 -195 -112 c-107 -62 -200 -113 -207 -113 -7 0 -87 43 -178 96 -91 53
-169 99 -173 101 -5 2 -8 -12 -8 -31 0 -34 1 -35 168 -130 92 -52 174 -97 182
-100 9 -4 99 43 210 108 l195 113 11 -46 c12 -53 29 -61 80 -37 19 9 49 23 68
32 19 9 37 25 39 36 5 19 2 20 -64 13 -38 -4 -69 -4 -69 0 0 4 11 16 25 27 33
26 35 62 3 53 -13 -4 -27 -8 -33 -9 -5 0 -18 33 -27 74 -36 151 -46 170 -89
170 -19 0 -34 8 -44 24 -19 28 -39 34 -80 26z"/>
<path d="M4175 7150 c-3 -6 1 -7 9 -4 18 7 21 14 7 14 -6 0 -13 -4 -16 -10z"/>
<path d="M2840 7146 c0 -3 9 -10 20 -16 11 -6 20 -8 20 -6 0 3 -9 10 -20 16
-11 6 -20 8 -20 6z"/>
<path d="M4042 7073 c-18 -9 -30 -18 -28 -21 3 -3 12 1 20 7 8 7 24 10 36 6
11 -3 20 -2 20 4 0 18 -16 20 -48 4z"/>
<path d="M2960 7076 c0 -3 14 -12 30 -21 17 -9 30 -13 30 -11 0 3 -13 12 -30
21 -16 9 -30 13 -30 11z"/>
<path d="M7847 7039 c-9 -6 -14 -15 -11 -21 4 -7 2 -8 -5 -4 -13 8 -101 -39
-101 -54 0 -5 -7 -6 -17 -3 -11 4 -14 3 -9 -5 4 -7 3 -12 -3 -12 -11 0 -191
-117 -191 -125 0 -4 28 12 180 100 30 17 90 51 133 75 42 24 77 47 77 52 0 11
-31 10 -53 -3z"/>
<path d="M3030 7036 c0 -3 9 -10 20 -16 11 -6 20 -8 20 -6 0 3 -9 10 -20 16
-11 6 -20 8 -20 6z"/>
<path d="M3100 6996 c0 -2 41 -28 91 -57 49 -29 97 -61 105 -73 7 -11 14 -16
14 -10 0 20 -64 64 -202 141 -5 2 -8 2 -8 -1z"/>
<path d="M4610 6921 c0 -37 -4 -42 -54 -75 -29 -20 -56 -36 -61 -36 -4 0 -44
-22 -89 -49 -44 -26 -88 -51 -96 -55 -8 -4 -24 -12 -35 -19 -27 -16 -171 -99
-215 -124 -19 -11 -80 -46 -135 -78 -312 -181 -433 -249 -462 -261 -40 -17
-49 -31 -24 -39 11 -3 32 -20 46 -36 23 -28 25 -38 25 -125 0 -52 -2 -94 -4
-94 -2 0 -181 102 -397 226 -217 124 -417 239 -445 255 -53 30 -88 38 -82 17
3 -7 40 -34 84 -59 321 -186 793 -458 810 -467 18 -10 75 20 445 234 233 135
514 298 624 361 110 63 206 120 213 125 8 7 12 43 12 112 0 124 -12 147 -99
194 l-61 33 0 -40z"/>
<path d="M8055 6891 c-88 -49 -368 -212 -442 -257 -39 -24 -74 -44 -78 -44 -3
0 -23 -11 -43 -25 -32 -22 -34 -25 -14 -25 14 0 21 4 16 11 -4 7 0 9 14 5 11
-4 23 -2 27 3 4 7 -1 8 -11 4 -12 -4 -15 -3 -10 6 5 7 17 10 28 8 11 -3 27 2
39 14 10 10 19 16 19 13 0 -3 22 7 50 22 27 15 47 31 43 37 -3 6 -1 7 6 3 6
-4 102 45 226 115 133 77 209 126 202 131 -17 11 -16 11 -72 -21z m-400 -251
c-3 -5 -12 -10 -18 -10 -7 0 -6 4 3 10 19 12 23 12 15 0z"/>
<path d="M2917 6869 c7 -7 15 -10 18 -7 3 3 -2 9 -12 12 -14 6 -15 5 -6 -5z"/>
<path d="M2960 6846 c0 -3 14 -12 30 -21 17 -9 30 -13 30 -11 0 3 -13 12 -30
21 -16 9 -30 13 -30 11z"/>
<path d="M7823 6627 c-281 -163 -383 -227 -383 -240 0 -37 60 -117 87 -117 12
0 19 -50 15 -110 0 -11 3 -10 14 4 8 11 14 16 14 10 0 -5 -32 -47 -70 -92 -39
-46 -70 -85 -70 -86 0 -1 14 -39 30 -84 17 -46 30 -84 30 -86 0 -5 -34 1 -54
9 -11 5 -25 3 -35 -3 -9 -7 -26 -16 -38 -22 -13 -5 -23 -13 -24 -17 -5 -54 -3
-74 13 -105 15 -31 24 -38 48 -38 25 0 33 7 52 48 13 26 28 47 35 47 6 0 15 3
19 7 10 11 46 -99 46 -141 l0 -33 56 7 c85 11 100 20 122 71 32 74 34 93 14
116 -19 20 -19 21 1 14 16 -4 23 1 33 24 14 31 32 40 32 16 0 -8 7 -16 15 -20
19 -7 19 -30 1 -59 -22 -32 -65 -177 -59 -193 13 -33 -48 -70 -157 -95 -41
-10 -67 -18 -56 -18 14 -1 16 -4 8 -14 -16 -19 -6 -325 10 -345 11 -13 10 -14
-10 -3 -17 9 -42 9 -107 0 -87 -11 -173 -2 -202 23 -7 6 -16 8 -19 5 -3 -3 2
-63 11 -134 15 -111 22 -289 12 -300 -2 -2 -26 8 -53 22 -27 14 -40 20 -30 13
11 -7 29 -22 40 -34 12 -11 29 -23 39 -27 12 -5 17 -17 17 -45 0 -22 3 -54 6
-71 6 -26 3 -31 -13 -31 -10 0 -23 4 -28 8 -6 5 -32 21 -60 37 -42 24 -47 25
-32 7 19 -20 18 -21 -35 -51 -29 -17 -62 -31 -72 -31 -11 0 -48 16 -83 35 -34
20 -63 34 -63 31 0 -3 14 -12 30 -21 17 -9 30 -21 30 -28 0 -6 -27 -26 -59
-44 l-58 -32 -39 21 c-21 11 -54 29 -71 40 -27 16 -33 17 -33 5 0 -8 -28 -30
-63 -47 l-63 -33 -67 37 c-69 39 -92 44 -35 8 l31 -20 -49 -31 c-74 -47 -85
-47 -154 -7 -70 41 -70 41 -70 21 0 -8 9 -15 20 -15 11 0 45 -14 74 -30 l54
-31 37 25 c20 14 45 28 56 31 10 4 19 11 19 16 0 15 36 10 69 -8 21 -12 34
-15 39 -7 10 14 110 74 124 74 6 0 40 -16 75 -35 34 -20 63 -32 63 -26 0 14
106 71 132 71 13 0 32 -7 42 -15 18 -13 22 -13 40 3 33 29 95 62 117 62 11 0
38 -10 59 -22 31 -18 40 -29 40 -50 0 -30 18 -38 68 -27 43 9 39 -10 -6 -30
-20 -9 -32 -22 -32 -33 0 -21 19 -19 73 9 25 13 27 12 27 -7 0 -16 7 -20 31
-20 17 0 39 5 50 10 13 8 19 7 19 0 0 -6 -16 -18 -35 -26 -35 -14 -48 -44 -20
-44 21 0 75 28 103 53 33 30 28 47 -13 47 -27 0 -35 4 -35 18 0 11 12 24 26
31 15 6 24 14 21 17 -3 3 -15 1 -26 -6 -19 -10 -21 -8 -21 25 0 41 12 44 46
10 14 -14 31 -25 38 -25 8 0 26 -6 41 -14 24 -13 29 -12 45 4 11 11 33 26 50
35 18 9 30 19 27 22 -3 2 -25 -7 -50 -21 -56 -33 -68 -33 -133 5 -67 38 -73
66 -18 93 20 9 34 20 31 23 -4 3 -18 -2 -31 -11 -14 -9 -28 -16 -32 -16 -4 0
-4 42 0 93 3 50 9 157 12 237 3 80 7 150 9 157 3 10 12 9 37 -1 18 -8 52 -17
75 -21 l42 -7 3 89 3 88 64 -177 64 -177 68 -41 c51 -30 78 -40 111 -40 72 1
114 15 147 51 l30 34 1 -39 c0 -85 96 -163 210 -173 49 -5 64 -2 94 17 l36 22
0 558 0 558 128 75 c122 72 175 102 452 262 l125 72 3 51 c2 41 -1 53 -15 60
-19 10 -17 11 -568 -307 l-230 -133 -50 11 c-65 15 -125 50 -104 61 8 5 171
99 363 209 193 111 356 199 363 196 20 -7 13 85 -7 97 -11 7 -77 -26 -250
-126 -129 -75 -238 -136 -242 -136 -4 0 -9 115 -10 256 -3 221 -5 258 -19 267
-12 7 -45 -8 -142 -64 -75 -43 -122 -76 -115 -80 13 -8 29 11 -281 -347 -227
-263 -235 -270 -277 -277 -49 -7 -136 3 -132 16 9 23 543 629 556 629 10 0 12
6 8 20 -3 11 -9 28 -12 38 -4 14 12 27 73 61 43 25 86 44 96 43 14 -1 17 8 17
43 0 42 -12 56 -43 54 -7 0 -184 -100 -394 -222z m58 -44 c13 -16 12 -17 -3
-4 -10 7 -18 15 -18 17 0 8 8 3 21 -13z m35 8 c-4 -5 -1 -11 5 -13 5 -2 -47
-70 -118 -151 -137 -158 -138 -158 -216 -135 -39 12 -107 66 -107 85 0 5 39
31 88 56 48 26 114 63 147 82 62 36 81 42 70 25 -9 -15 11 -12 24 4 9 11 9 15
-1 18 -8 3 -8 6 3 10 10 4 15 -1 16 -13 1 -10 -1 -19 -5 -19 -4 0 -20 -11 -37
-25 -30 -26 -30 -26 22 2 28 15 49 32 46 37 -4 5 -1 6 5 2 12 -7 53 10 51 22
-2 12 1 22 7 22 3 0 3 -4 0 -9z m-516 -2096 c0 -25 -4 -45 -10 -45 -5 0 -10
20 -10 45 0 25 5 45 10 45 6 0 10 -20 10 -45z m-40 -125 c0 -5 -4 -10 -10 -10
-5 0 -10 5 -10 10 0 6 5 10 10 10 6 0 10 -4 10 -10z m130 -60 c0 -5 -5 -10
-11 -10 -5 0 -7 5 -4 10 3 6 8 10 11 10 2 0 4 -4 4 -10z"/>
<path d="M7716 6475 c-11 -8 -16 -15 -10 -15 5 0 18 7 28 15 11 8 16 15 10 15
-5 0 -18 -7 -28 -15z"/>
<path d="M3312 6762 c-1 -61 -6 -84 -16 -88 -8 -3 -45 12 -83 34 -81 47 -120
67 -112 58 4 -4 48 -32 100 -62 116 -68 121 -66 116 57 l-3 84 -2 -83z"/>
<path d="M3030 6806 c0 -3 14 -12 30 -21 17 -9 30 -13 30 -11 0 3 -13 12 -30
21 -16 9 -30 13 -30 11z"/>
<path d="M7464 6794 c-18 -14 -18 -14 6 -3 31 14 36 19 24 19 -6 0 -19 -7 -30
-16z"/>
<path d="M11043 6596 c-35 -72 -38 -106 -11 -146 31 -46 76 -67 171 -79 43 -5
88 -16 101 -24 13 -9 36 -45 52 -82 27 -61 31 -65 54 -60 70 17 94 56 115 185
8 51 20 98 26 106 26 32 -28 58 -145 69 -38 3 -78 11 -90 17 -12 7 -49 11 -82
9 -50 -2 -71 2 -112 23 -28 14 -53 26 -55 26 -2 0 -13 -20 -24 -44z"/>
<path d="M7385 6501 c-3 -5 0 -13 6 -17 8 -5 9 -3 4 6 -6 10 -4 12 9 7 10 -4
15 -3 11 3 -8 13 -22 13 -30 1z"/>
<path d="M11638 6280 c-35 -19 -36 -22 -27 -50 13 -36 18 -36 53 -9 17 14 26
30 26 50 0 34 -3 34 -52 9z"/>
<path d="M10830 6242 l0 -38 131 -75 c72 -40 150 -85 173 -97 22 -13 51 -30
63 -38 12 -8 29 -14 38 -14 8 0 75 34 148 76 194 112 178 100 165 129 -6 14
-15 25 -20 25 -5 0 -72 -36 -149 -81 -76 -45 -145 -79 -152 -76 -7 2 -97 55
-200 116 -104 61 -190 111 -193 111 -2 0 -4 -17 -4 -38z"/>
<path d="M11598 6154 c-23 -12 -25 -17 -18 -55 5 -26 17 -49 31 -60 25 -19 41
-17 21 3 -22 22 -13 28 41 28 40 0 58 5 70 18 25 28 21 33 -23 26 -35 -6 -43
-3 -68 24 -26 28 -30 29 -54 16z"/>
<path d="M8995 5804 c-68 -41 -76 -48 -62 -59 15 -11 17 -46 19 -326 l3 -314
37 78 c21 42 41 77 45 77 4 0 21 -14 39 -31 l32 -31 1 312 c2 301 -1 340 -28
340 -4 0 -42 -21 -86 -46z"/>
<path d="M6136 5311 c5 -5 70 -44 144 -86 74 -43 145 -84 157 -92 18 -12 22
-12 30 0 4 8 28 24 51 36 24 12 41 25 38 28 -3 3 -25 -6 -50 -21 -24 -14 -52
-26 -61 -26 -22 0 -145 72 -145 85 0 6 21 21 46 33 26 13 44 25 42 27 -3 3
-29 -8 -59 -25 l-55 -29 -68 39 c-66 39 -90 49 -70 31z"/>
<path d="M11853 5281 l-19 -38 211 -121 c117 -66 218 -122 226 -124 10 -2 15
9 17 38 l3 41 -103 60 c-57 33 -151 88 -210 121 l-107 60 -18 -37z"/>
<path d="M5995 5225 c11 -9 41 -28 67 -43 27 -15 48 -31 48 -37 0 -5 -28 -25
-61 -43 l-61 -32 -74 40 c-41 23 -74 39 -74 36 0 -2 18 -15 40 -27 22 -13 40
-28 40 -34 0 -6 -60 -44 -132 -84 l-133 -74 -57 32 c-68 37 -78 34 -13 -5 25
-14 45 -30 45 -35 0 -5 11 -9 24 -9 14 0 27 -4 30 -9 4 -5 35 -26 71 -46 36
-20 63 -40 60 -45 -6 -11 -115 -70 -128 -70 -4 0 -40 19 -78 41 -38 23 -72 39
-75 36 -9 -9 6 -27 22 -27 8 0 45 -17 82 -37 65 -35 69 -36 88 -19 26 23 93
66 104 66 11 0 114 63 118 73 2 4 13 7 24 7 29 0 128 59 128 76 0 18 5 18 34
-2 23 -14 28 -13 80 16 53 30 77 50 59 50 -4 0 -26 -12 -48 -25 -22 -14 -46
-25 -54 -25 -17 0 -161 81 -161 91 0 11 105 69 124 69 21 0 153 -76 158 -90 2
-6 14 -12 26 -15 13 -2 43 -16 67 -30 35 -20 46 -22 52 -12 4 8 27 24 50 37
24 13 41 26 38 28 -2 2 -25 -7 -51 -22 -25 -14 -54 -26 -63 -26 -9 0 -102 50
-206 111 -105 61 -199 115 -210 120 l-20 10 20 -16z m43 -198 c67 -40 71 -45
55 -59 -29 -24 -93 -58 -110 -58 -21 0 -153 78 -153 90 0 13 92 69 115 69 11
1 53 -19 93 -42z m-150 -79 c39 -24 70 -47 68 -52 -1 -6 -29 -25 -62 -43 l-60
-33 -77 45 c-42 25 -77 50 -77 55 0 11 99 67 121 69 9 0 49 -18 87 -41z"/>
<path d="M6500 5098 c19 -13 40 -29 47 -38 7 -8 13 -12 13 -7 0 4 18 -2 40
-13 22 -11 40 -16 40 -11 0 6 20 22 45 37 25 14 44 29 41 31 -2 3 -24 -7 -49
-21 -24 -14 -52 -26 -61 -26 -10 0 -45 16 -77 35 -66 38 -95 48 -39 13z"/>
<path d="M6650 5012 c0 -5 14 -15 30 -22 17 -7 30 -19 30 -26 0 -8 9 -14 20
-14 12 0 34 -7 50 -15 17 -9 30 -11 30 -5 0 5 24 23 53 40 63 36 55 40 -13 5
-51 -26 -79 -31 -95 -17 -23 20 -105 62 -105 54z"/>
<path d="M6470 4940 c6 -12 14 -19 17 -16 4 3 30 -7 59 -24 46 -26 54 -27 65
-14 7 9 30 24 52 35 21 11 37 23 34 26 -3 2 -25 -7 -50 -21 -56 -33 -68 -33
-134 5 -51 29 -54 30 -43 9z"/>
<path d="M6392 4888 c-39 -22 -51 -33 -43 -41 8 -8 14 -7 23 5 7 8 30 25 51
37 35 21 46 32 30 30 -5 -1 -32 -15 -61 -31z"/>
<path d="M6840 4901 c14 -11 28 -21 33 -21 36 -1 -78 -80 -116 -80 -10 0 -46
16 -79 35 -33 20 -63 34 -66 31 -3 -3 3 -8 12 -12 29 -11 17 -28 -45 -61 l-60
-33 -71 40 c-39 23 -65 34 -59 26 7 -8 21 -18 32 -21 10 -4 19 -10 19 -15 0
-14 -101 -70 -125 -70 -11 0 -46 16 -78 35 -32 19 -72 42 -90 50 -29 14 -30
14 -13 0 11 -8 23 -15 28 -15 4 0 8 -6 8 -14 0 -14 -103 -76 -124 -76 -6 0
-47 23 -91 50 -44 26 -82 46 -85 43 -3 -3 1 -8 7 -10 24 -9 56 -40 50 -49 -3
-5 -30 -22 -60 -39 l-56 -29 -39 22 c-44 25 -52 26 -52 12 0 -5 6 -10 13 -10
6 0 30 -10 52 -21 l40 -22 40 26 c22 14 48 33 58 41 23 21 34 20 90 -9 53 -28
38 -32 134 33 18 12 39 22 48 22 21 0 155 -79 155 -91 0 -5 7 -9 16 -9 9 0 43
-16 76 -36 51 -31 61 -34 71 -22 7 8 29 25 50 37 56 34 44 35 -21 2 l-58 -29
-72 41 c-40 23 -72 44 -72 48 0 12 99 69 121 69 11 0 33 -7 49 -15 17 -9 30
-11 30 -6 0 13 103 71 125 71 24 0 142 -68 149 -85 3 -8 15 -15 26 -15 11 0
38 -11 60 -25 l39 -25 25 23 c14 12 42 32 63 44 39 21 40 21 81 3 26 -12 44
-15 48 -9 3 6 27 23 52 39 57 36 44 39 -17 5 -23 -14 -50 -25 -59 -25 -8 0
-45 16 -81 36 -53 28 -64 24 -12 -5 8 -5 11 -14 7 -20 -10 -15 -101 -61 -121
-61 -19 0 -145 71 -145 82 0 4 10 14 23 21 12 8 36 22 52 33 38 24 43 24 88 2
20 -10 37 -14 37 -9 0 5 24 23 53 40 28 17 48 31 42 31 -5 0 -30 -11 -54 -25
-53 -31 -72 -31 -119 -2 -20 13 -48 29 -62 36 l-25 12 25 -20z"/>
<path d="M5495 4839 c-66 -38 -129 -69 -140 -69 -11 0 -38 12 -60 25 -43 27
-55 30 -55 16 0 -12 96 -71 114 -71 20 0 176 89 176 101 0 5 20 19 45 31 25
12 45 26 45 30 0 10 15 18 -125 -63z"/>
<path d="M11560 4866 c0 -3 42 -28 93 -57 50 -28 138 -78 195 -110 56 -32 102
-54 102 -50 0 8 -371 221 -385 221 -3 0 -5 -2 -5 -4z"/>
<path d="M6061 4846 c2 -2 15 -9 29 -15 24 -11 24 -11 6 3 -16 13 -49 24 -35
12z"/>
<path d="M11821 4756 c4 -4 154 -92 181 -107 11 -6 18 -6 18 0 0 10 -174 111
-192 111 -6 0 -9 -2 -7 -4z"/>
<path d="M11650 4743 c0 -4 22 -20 48 -34 26 -14 82 -45 125 -68 42 -23 77
-38 77 -34 0 5 -19 19 -42 31 -24 11 -80 42 -125 67 -46 25 -83 43 -83 38z"/>
<path d="M6570 4721 c14 -11 28 -21 33 -21 4 0 7 -7 7 -15 0 -8 9 -15 20 -15
12 0 34 -7 50 -15 17 -9 30 -11 30 -5 0 5 23 21 51 36 28 14 48 28 45 31 -3 3
-25 -6 -50 -21 -49 -29 -82 -33 -111 -13 -11 7 -38 24 -60 36 -36 21 -37 21
-15 2z"/>
<path d="M11770 4713 c0 -7 37 -29 259 -151 36 -20 61 -31 58 -25 -4 6 -58 39
-120 74 -61 34 -131 73 -154 86 -24 14 -43 21 -43 16z"/>
<path d="M11970 4715 c0 -5 167 -105 176 -105 16 0 -15 23 -84 64 -75 44 -92
52 -92 41z"/>
<path d="M5440 4696 c0 -17 119 -86 149 -86 12 0 21 -6 21 -13 0 -13 117 -87
137 -87 13 0 124 73 119 78 -3 2 -24 -8 -49 -22 -24 -14 -52 -26 -62 -26 -26
0 -145 69 -145 83 0 7 21 23 46 35 26 13 44 26 41 29 -4 3 -26 -6 -51 -21 -55
-32 -76 -33 -124 -3 -70 44 -82 49 -82 33z"/>
<path d="M6081 4663 c0 -5 37 -26 82 -48 45 -22 84 -42 87 -45 3 -3 17 -13 33
-23 15 -10 27 -21 27 -26 0 -10 -104 -71 -121 -71 -6 0 -43 19 -82 41 -40 23
-88 50 -107 61 l-35 20 25 -21 c14 -11 33 -23 43 -27 9 -3 17 -12 17 -20 0 -8
9 -14 20 -14 11 0 45 -14 74 -30 l54 -31 37 25 c20 14 45 28 56 31 10 4 19 11
19 16 0 14 25 11 64 -7 30 -15 36 -15 48 -3 8 8 31 23 51 34 20 11 37 23 37
27 0 4 -26 -7 -58 -24 l-59 -32 -68 39 c-38 22 -70 46 -73 52 -2 7 17 23 42
35 25 12 46 26 46 30 0 5 -24 -5 -53 -22 -30 -16 -59 -30 -65 -30 -6 0 -38 16
-71 35 -62 36 -71 40 -70 28z"/>
<path d="M6976 4647 c10 -15 26 -27 35 -27 9 0 37 -12 63 -26 25 -14 46 -21
46 -16 0 6 24 24 53 41 63 37 55 41 -13 6 -51 -26 -79 -31 -95 -17 -6 5 -32
21 -59 37 l-49 27 19 -25z"/>
<path d="M6001 4625 c-52 -30 -76 -31 -116 -5 -41 27 -49 25 -19 -5 14 -14 32
-25 40 -25 8 0 24 -4 34 -10 13 -7 21 -5 31 6 7 8 30 24 51 35 36 18 47 29 31
29 -5 0 -28 -11 -52 -25z"/>
<path d="M6740 4621 c14 -11 28 -21 33 -21 4 0 7 -6 7 -13 0 -14 -100 -67
-126 -67 -9 0 -42 16 -75 35 -43 25 -59 30 -59 20 0 -8 7 -15 15 -15 8 0 44
-16 80 -36 36 -20 65 -31 65 -26 0 12 104 72 125 72 9 0 29 -7 44 -15 26 -13
30 -13 42 1 7 9 30 24 52 35 21 11 37 23 34 26 -3 3 -30 -9 -59 -26 -60 -33
-49 -35 -153 23 -35 20 -43 22 -25 7z"/>
<path d="M11970 4635 c0 -8 122 -76 132 -73 5 2 -20 20 -56 41 -64 36 -76 42
-76 32z"/>
<path d="M12044 4631 c10 -15 86 -54 86 -43 0 5 -17 17 -37 27 -55 28 -56 29
-49 16z"/>
<path d="M11415 4586 c-56 -24 -82 -96 -54 -147 8 -16 7 -26 -5 -44 -17 -26
-56 -137 -56 -160 0 -13 3 -13 20 -3 22 14 20 15 42 -32 16 -33 17 -34 17 -9
1 26 28 110 51 162 9 19 25 30 53 38 55 15 87 52 87 101 0 50 -13 74 -50 93
-35 18 -65 19 -105 1z m103 -22 c35 -24 44 -59 28 -99 -40 -94 -180 -77 -180
22 0 71 93 118 152 77z"/>
<path d="M11950 4577 c0 -9 111 -69 117 -64 3 3 -19 18 -49 34 -67 35 -68 36
-68 30z"/>
<path d="M5780 4497 c0 -16 122 -87 150 -87 11 0 20 -6 20 -12 0 -7 29 -30 65
-50 62 -37 105 -48 105 -28 0 6 20 20 45 32 25 12 45 26 45 31 0 5 -25 -5 -56
-23 l-56 -31 -74 42 c-41 23 -74 46 -74 50 0 5 20 20 45 35 63 37 56 40 -13 5
l-59 -30 -71 40 c-46 26 -72 35 -72 26z"/>
<path d="M7060 4435 c0 -2 14 -11 30 -20 17 -9 30 -21 30 -28 0 -15 -93 -67
-120 -67 -10 0 -45 15 -77 34 -38 23 -59 30 -61 22 -3 -13 -106 -76 -124 -76
-5 0 -40 16 -76 36 -37 20 -58 28 -47 20 11 -9 28 -23 38 -31 9 -8 22 -15 28
-15 6 0 23 -7 38 -16 25 -15 28 -14 87 25 34 23 67 41 74 41 7 0 41 -16 75
-35 54 -30 64 -33 75 -20 16 19 99 65 118 65 22 0 142 -69 149 -86 3 -8 13
-14 23 -14 26 0 150 -73 150 -87 0 -7 10 -13 23 -13 12 0 33 -8 47 -17 16 -12
25 -13 28 -5 2 6 26 24 53 38 27 15 47 29 45 32 -3 2 -29 -10 -59 -27 l-54
-31 -49 26 c-94 50 -104 58 -99 75 4 13 0 15 -20 12 -17 -4 -45 7 -90 33 -35
22 -65 42 -65 46 0 4 14 15 31 23 17 9 29 19 26 21 -3 3 -19 -2 -36 -10 -43
-23 -59 -20 -124 19 -58 35 -67 39 -67 30z"/>
<path d="M7688 4407 c8 -9 22 -19 33 -22 10 -4 19 -13 19 -22 0 -9 6 -13 14
-10 7 3 28 -3 46 -14 28 -18 33 -18 44 -5 6 8 31 26 56 40 58 33 44 34 -20 1
-56 -28 -77 -31 -105 -12 -59 39 -99 60 -87 44z"/>
<path d="M4342 4369 c3 -33 10 -38 184 -139 99 -58 345 -201 548 -319 346
-202 369 -213 392 -201 20 11 22 16 12 25 -7 7 -137 84 -288 172 -284 166
-509 297 -665 388 -49 29 -112 65 -138 80 l-48 28 3 -34z"/>
<path d="M11586 4381 c10 -10 184 -111 191 -111 16 0 -19 25 -97 69 -86 49
-115 62 -94 42z"/>
<path d="M7675 4324 c-32 -20 -48 -24 -80 -19 l-40 5 55 -30 c30 -17 58 -37
63 -45 4 -8 15 -15 23 -15 24 0 144 -70 144 -83 0 -16 -94 -67 -123 -67 -13 0
-27 4 -32 8 -6 5 -32 21 -60 36 -36 20 -43 22 -25 7 14 -11 28 -21 33 -21 4 0
7 -7 7 -15 0 -8 9 -15 20 -15 12 0 34 -7 50 -15 17 -9 30 -11 30 -6 0 11 107
71 127 71 8 0 36 -11 63 -25 28 -14 50 -21 50 -16 0 16 104 75 125 72 11 -2
32 -9 48 -17 15 -8 27 -10 27 -5 0 5 23 22 50 37 28 15 48 29 46 32 -3 2 -25
-7 -50 -22 -24 -14 -52 -26 -62 -26 -9 0 -47 16 -83 36 -36 19 -55 26 -41 15
14 -11 28 -21 33 -21 35 -1 -77 -80 -114 -80 -24 0 -150 72 -146 84 6 17 90
64 115 65 13 1 36 -6 52 -14 17 -9 30 -11 30 -6 0 5 23 22 50 37 28 15 48 29
46 32 -3 2 -26 -7 -52 -22 -57 -32 -74 -32 -122 -3 -20 13 -48 29 -62 36 l-25
12 25 -20 c14 -11 28 -21 33 -21 36 -1 -78 -80 -116 -80 -21 0 -147 71 -147
83 0 4 14 16 31 25 43 24 66 41 54 41 -5 0 -28 -11 -50 -25z"/>
<path d="M11710 4346 c0 -7 182 -107 187 -103 2 3 -35 28 -82 56 -79 46 -105
58 -105 47z"/>
<path d="M6460 4275 c74 -44 100 -54 100 -36 0 4 20 19 45 32 25 13 45 27 45
32 0 4 -24 -6 -53 -23 -30 -16 -59 -30 -67 -30 -7 0 -38 16 -70 35 -32 19 -62
35 -66 35 -5 0 25 -20 66 -45z"/>
<path d="M2938 4285 c-29 -25 -35 -53 -18 -85 12 -23 45 -16 65 14 11 15 26
21 55 21 22 0 40 1 40 3 0 15 -26 44 -50 57 -40 21 -60 18 -92 -10z"/>
<path d="M6132 4294 c4 -19 793 -483 823 -484 11 0 25 -8 32 -19 25 -40 163
-101 163 -72 0 5 20 21 45 35 64 38 56 42 -12 7 l-57 -31 -56 32 c-78 44 -90
52 -90 59 0 4 20 19 45 33 64 38 56 42 -13 7 -54 -27 -59 -28 -87 -14 -26 14
-305 176 -683 397 -76 44 -112 61 -110 50z"/>
<path d="M10225 4274 c-9 -20 -28 -96 -41 -168 -13 -72 -28 -151 -33 -176 -5
-25 -8 -47 -6 -49 2 -1 20 30 40 70 21 41 49 86 63 102 29 31 66 35 81 10 15
-25 14 -16 -10 94 -34 155 -60 188 -94 117z"/>
<path d="M7030 4276 c0 -14 -99 -76 -121 -76 -6 0 -38 16 -71 35 -33 20 -63
34 -65 31 -3 -2 9 -12 26 -21 17 -8 31 -20 31 -25 0 -6 7 -10 15 -10 9 0 29
-7 46 -15 27 -14 31 -14 59 5 109 74 99 72 175 26 l56 -33 54 35 c69 45 64 54
-7 14 l-54 -31 -72 40 c-51 28 -72 35 -72 25z"/>
<path d="M11730 4267 c0 -3 32 -23 70 -46 39 -22 70 -37 70 -33 0 4 -28 23
-62 42 -74 41 -78 43 -78 37z"/>
<path d="M11800 4263 c0 -8 73 -53 86 -53 11 0 -6 14 -48 39 -21 13 -38 19
-38 14z"/>
<path d="M6630 4175 c74 -44 100 -54 100 -36 0 4 20 19 45 32 25 13 45 27 45
31 0 3 -26 -8 -57 -25 l-57 -31 -68 37 c-93 51 -99 46 -8 -8z"/>
<path d="M5910 4177 c-19 -7 -118 -60 -220 -116 -102 -57 -217 -121 -256 -143
-39 -21 -80 -48 -90 -60 l-19 -21 30 20 c31 21 445 253 522 292 27 14 61 21
96 21 51 0 67 -8 383 -191 181 -105 337 -198 347 -207 15 -14 17 -14 12 -1 -7
18 -652 397 -698 410 -42 12 -64 11 -107 -4z"/>
<path d="M7200 4177 c0 -15 -98 -77 -121 -77 -6 0 -37 16 -69 35 -61 37 -97
49 -42 14 17 -12 32 -25 32 -30 0 -5 8 -9 18 -9 10 0 27 -7 38 -15 25 -19 40
-19 62 1 29 26 92 64 107 64 19 0 155 -80 155 -91 0 -5 7 -9 16 -9 9 0 43 -16
76 -36 51 -31 61 -34 71 -22 7 8 29 25 50 38 53 31 40 36 -14 5 -24 -13 -53
-25 -63 -25 -21 0 -146 70 -146 82 0 4 20 19 45 34 25 14 44 28 42 30 -2 3
-24 -7 -48 -21 -24 -13 -52 -25 -62 -25 -10 0 -48 16 -83 36 -47 26 -64 32
-64 21z"/>
<path d="M2895 4107 c-20 -23 -20 -24 -1 -38 18 -15 19 -22 10 -123 l-9 -107
25 6 c14 4 26 8 27 9 1 1 5 38 8 81 6 73 4 83 -18 119 l-25 40 22 17 c20 18
21 18 1 18 -11 1 -29 -10 -40 -22z"/>
<path d="M6802 4075 c76 -44 98 -53 98 -37 0 4 20 18 45 32 25 14 45 28 45 32
0 4 -23 -6 -50 -22 -28 -17 -56 -30 -62 -30 -6 0 -39 16 -74 35 -91 51 -92 43
-2 -10z"/>
<path d="M8202 4108 c9 -7 24 -18 34 -24 24 -14 12 -30 -46 -59 -51 -26 -79
-31 -95 -17 -6 5 -32 21 -60 37 -41 23 -47 24 -32 8 18 -20 17 -21 -37 -52
-67 -37 -85 -38 -134 -8 -20 13 -48 29 -62 36 l-25 12 25 -20 c14 -11 28 -21
33 -21 4 0 7 -7 7 -15 0 -9 9 -15 23 -15 27 0 147 -69 147 -84 0 -14 -99 -66
-123 -66 -10 0 -45 16 -78 35 -39 23 -59 30 -59 21 0 -8 -28 -29 -63 -46 l-63
-33 -65 36 c-69 39 -108 51 -51 17 17 -11 32 -24 32 -29 0 -10 -103 -71 -121
-71 -6 0 -38 16 -70 35 -69 40 -69 40 -69 20 0 -8 8 -15 18 -15 9 0 45 -14 80
-32 55 -29 64 -31 72 -17 5 8 27 24 50 34 22 10 40 22 40 27 0 13 26 9 65 -9
23 -11 39 -14 43 -7 9 14 110 74 123 74 6 0 40 -16 75 -36 35 -20 64 -31 64
-26 0 13 105 72 127 72 10 -1 29 -7 42 -14 22 -12 28 -11 50 4 14 9 39 25 54
34 16 10 26 20 24 23 -3 2 -25 -7 -50 -21 -24 -14 -52 -26 -62 -26 -27 0 -147
70 -142 83 5 17 88 65 113 66 12 1 42 -11 68 -25 25 -14 46 -21 46 -15 0 5 21
23 48 38 26 15 48 30 50 34 9 20 176 -64 169 -84 -2 -7 -23 -24 -48 -39 -45
-27 -87 -35 -104 -20 -6 5 -32 21 -59 37 l-49 27 19 -25 c10 -15 26 -27 35
-27 9 0 37 -12 63 -26 25 -14 46 -21 46 -15 0 5 22 22 50 38 27 15 50 31 50
36 0 21 135 -44 170 -82 8 -9 29 -25 47 -36 32 -19 32 -19 83 5 50 23 77 46
68 55 -3 3 -25 -6 -49 -20 -24 -13 -53 -25 -63 -25 -26 0 -147 72 -143 85 2 5
23 21 46 34 23 13 40 25 37 28 -2 3 -24 -7 -49 -21 -24 -14 -52 -26 -62 -26
-21 0 -145 70 -145 82 0 4 21 21 48 38 57 36 45 40 -17 5 -23 -14 -50 -25 -59
-25 -8 0 -45 16 -81 36 -36 19 -59 29 -49 22z"/>
<path d="M9862 4053 c-26 -50 -40 -118 -58 -283 -8 -74 -17 -151 -21 -170 -6
-35 -6 -35 15 -17 27 25 36 50 72 202 32 137 59 208 85 222 24 14 -14 77 -48
81 -21 3 -29 -4 -45 -35z"/>
<path d="M7135 4050 c17 -11 30 -25 30 -30 0 -6 -27 -25 -59 -43 l-59 -31 -68
37 c-38 21 -69 35 -69 33 0 -4 138 -86 145 -86 2 0 31 18 64 40 33 22 65 40
70 40 6 0 27 -8 47 -17 32 -16 37 -16 44 -2 5 9 27 24 50 34 22 10 40 22 40
27 0 5 -26 -6 -58 -23 l-59 -33 -67 37 c-72 40 -99 49 -51 17z"/>
<path d="M3087 3958 c2 -80 13 -88 13 -10 0 33 -3 63 -7 65 -5 3 -7 -22 -6
-55z"/>
<path d="M7550 3975 c0 -8 7 -15 16 -15 9 0 43 -16 76 -35 50 -30 62 -33 72
-22 6 8 28 24 49 36 53 32 46 36 -13 6 -27 -14 -57 -25 -65 -25 -9 0 -43 16
-76 35 -43 25 -59 30 -59 20z"/>
<path d="M7308 3949 c17 -12 32 -25 32 -29 0 -10 -105 -70 -122 -70 -7 0 -39
16 -71 35 -66 40 -67 40 -67 20 0 -8 9 -15 20 -15 10 0 43 -14 72 -31 41 -24
56 -29 68 -20 8 6 31 20 50 31 19 11 42 26 52 32 13 9 25 8 56 -6 40 -18 41
-18 62 2 12 11 35 26 51 32 16 7 29 16 29 20 0 5 -26 -6 -57 -23 l-57 -31 -68
37 c-73 40 -103 49 -50 16z"/>
<path d="M10520 3915 c-60 -31 -70 -33 -135 -29 -78 6 -81 4 -171 -69 -55 -45
-62 -48 -99 -41 -93 15 -116 9 -168 -48 -27 -29 -57 -69 -68 -90 -31 -60 -96
-105 -172 -122 -64 -13 -67 -13 -67 6 0 10 -4 17 -9 14 -5 -3 -7 -14 -4 -24 3
-12 -4 -24 -19 -34 -13 -9 -46 -45 -73 -82 -47 -61 -83 -93 -51 -43 8 12 35
72 60 132 25 61 52 115 61 121 17 12 10 24 -15 24 -30 0 -67 -54 -106 -155
-43 -113 -66 -157 -103 -199 l-26 -29 48 28 c41 24 51 26 76 16 15 -7 39 -30
52 -53 13 -22 34 -52 47 -65 21 -23 25 -23 45 -11 25 16 63 87 73 135 7 36 -9
49 -79 62 l-42 8 40 11 c22 7 55 12 73 12 50 0 111 36 174 102 l56 61 85 -8
c104 -8 120 -1 137 61 15 52 58 107 101 130 39 20 46 18 22 -8 -24 -27 -56
-115 -49 -135 8 -21 55 -15 80 10 12 12 35 45 51 71 27 47 28 49 10 62 -10 8
-30 14 -44 14 -23 1 -24 2 -8 11 10 6 25 8 33 5 8 -3 14 -1 14 4 0 4 12 11 28
14 15 4 52 29 82 57 30 28 72 62 93 76 20 14 37 27 37 29 0 6 1 6 -70 -31z"/>
<path d="M9105 3901 c-11 -11 -72 -45 -1623 -908 -323 -180 -334 -185 -380
-181 -44 5 -391 202 -1508 858 -80 47 -82 48 -108 31 l-26 -17 63 -35 c34 -20
359 -209 722 -421 894 -522 815 -478 862 -478 48 0 21 -14 583 300 459 256
796 444 1175 654 127 71 233 131 237 135 7 6 21 71 15 71 -2 0 -7 -4 -12 -9z"/>
<path d="M8330 3866 c0 -3 35 -26 77 -50 l78 -45 45 26 c54 31 66 41 57 49 -3
3 -27 -5 -53 -20 -25 -14 -53 -26 -62 -26 -8 0 -44 16 -79 35 -34 20 -63 34
-63 31z"/>
<path d="M8104 3828 c11 -7 30 -23 42 -35 11 -13 28 -23 35 -23 24 0 170 -91
167 -103 -2 -7 -29 -25 -60 -42 -64 -33 -54 -35 -178 35 -30 18 -46 24 -35 15
11 -9 46 -30 78 -48 31 -17 57 -37 57 -44 0 -19 14 -16 80 17 36 18 60 37 60
46 0 11 5 14 16 10 19 -7 134 54 134 71 0 8 -23 1 -63 -18 l-64 -32 -119 70
c-113 66 -197 112 -150 81z"/>
<path d="M3091 3768 c5 -17 14 -36 20 -42 9 -8 9 -5 0 11 -6 12 -11 31 -11 42
0 12 -4 21 -9 21 -6 0 -6 -12 0 -32z"/>
<path d="M7890 3775 c0 -8 7 -15 16 -15 9 0 44 -16 79 -35 51 -29 65 -33 72
-22 4 7 27 24 50 37 24 13 41 26 38 28 -2 2 -24 -7 -49 -22 -55 -32 -76 -33
-124 -3 -71 45 -82 49 -82 32z"/>
<path d="M7644 3755 c11 -8 23 -15 28 -15 4 0 8 -6 8 -14 0 -14 -97 -76 -118
-76 -6 0 -39 16 -72 36 -58 34 -80 39 -65 15 3 -6 13 -11 21 -11 9 0 42 -15
75 -32 52 -29 61 -31 69 -17 5 8 27 24 50 34 22 10 40 22 40 27 0 13 26 9 64
-9 32 -15 37 -15 53 -1 10 9 33 23 51 33 19 9 31 19 28 22 -3 3 -26 -6 -52
-21 -25 -14 -52 -26 -58 -26 -6 0 -37 16 -69 35 -59 36 -88 46 -53 20z"/>
<path d="M2905 3735 c-16 -8 -41 -15 -55 -15 -23 -1 -23 -2 -5 -9 11 -5 24 -6
28 -4 12 7 -11 -34 -23 -42 -6 -3 -1 -15 11 -28 17 -18 18 -23 6 -32 -9 -7
-13 -22 -9 -43 3 -26 1 -32 -14 -32 -16 0 -17 -2 -4 -10 13 -8 12 -10 -2 -10
-10 0 -18 -4 -18 -10 0 -15 27 -26 135 -54 55 -15 108 -30 118 -32 17 -5 18
-18 13 -209 -6 -201 -6 -205 16 -225 47 -43 80 -14 77 68 -1 41 33 242 49 282
3 8 9 -20 14 -62 4 -43 14 -94 21 -115 l12 -37 82 -2 c55 -1 88 2 100 11 24
18 8 34 -43 42 -21 3 -43 11 -49 16 -6 6 -9 75 -8 188 2 116 -1 180 -8 184 -6
4 -52 -18 -102 -48 -51 -31 -100 -59 -109 -62 -12 -5 -57 16 -133 61 -63 37
-115 68 -115 70 0 2 24 17 54 35 l54 33 -19 37 c-10 21 -19 45 -19 54 0 18
-15 18 -55 0z"/>
<path d="M7160 3697 c0 -9 27 -32 61 -52 58 -34 99 -45 99 -26 0 6 23 22 50
37 28 15 48 29 46 31 -2 3 -30 -9 -62 -26 l-58 -30 -55 31 c-31 17 -62 36 -68
41 -9 7 -13 5 -13 -6z"/>
<path d="M7814 3657 c11 -7 28 -20 38 -29 10 -10 23 -18 29 -18 17 0 131 -71
156 -97 12 -13 29 -23 38 -23 20 0 111 46 120 60 14 23 -5 21 -48 -4 -24 -14
-52 -26 -62 -26 -9 0 -76 34 -148 75 -71 41 -132 75 -136 74 -3 0 3 -6 13 -12z"/>
<path d="M3067 3581 l-59 -38 51 -32 c28 -17 53 -31 56 -31 2 0 7 21 10 48 3
26 8 57 11 70 6 29 -1 28 -69 -17z"/>
<path d="M7590 3610 c0 -6 8 -13 18 -16 9 -3 44 -19 78 -36 l61 -32 23 21 c12
12 35 27 51 33 16 7 29 16 29 21 0 5 -24 -4 -53 -21 -30 -16 -59 -30 -65 -30
-6 0 -38 16 -71 35 -64 38 -71 40 -71 25z"/>
<path d="M7330 3597 c0 -8 27 -31 61 -51 59 -35 99 -46 99 -26 0 5 23 21 51
36 28 14 49 28 46 31 -3 3 -31 -9 -62 -27 l-55 -32 -48 28 c-26 15 -57 34 -69
42 -20 13 -23 12 -23 -1z"/>
<path d="M7763 3510 c1 -6 -25 -26 -59 -45 l-61 -35 -46 24 c-25 14 -58 32
-72 42 -22 14 -25 15 -25 1 0 -19 117 -87 148 -87 12 0 22 -6 22 -14 0 -17 86
-68 116 -68 28 -1 114 50 114 68 0 9 -15 4 -50 -16 -28 -17 -56 -30 -63 -30
-23 1 -112 55 -112 69 0 18 82 69 110 70 12 1 45 -14 75 -32 l55 -32 53 28
c28 16 52 34 52 42 0 9 -18 3 -57 -18 l-57 -31 -68 37 c-73 40 -79 42 -75 27z"/>
<path d="M9893 3473 c-19 -33 -28 -61 -27 -88 2 -51 35 -145 56 -159 27 -16
63 10 88 65 22 46 22 50 8 91 -51 142 -49 138 -73 138 -18 0 -31 -12 -52 -47z"/>
<path d="M10817 3064 c-160 -91 -167 -97 -145 -109 13 -7 44 -24 70 -38 l46
-26 168 95 c92 52 171 94 176 94 4 0 8 4 8 8 0 9 -125 72 -143 72 -6 -1 -88
-44 -180 -96z"/>
<path d="M11462 3128 c-18 -18 -14 -42 13 -82 14 -21 23 -41 20 -46 -3 -5 -1
-11 5 -15 5 -3 10 -1 10 4 0 6 7 11 16 11 12 0 14 -7 9 -29 -7 -33 9 -44 53
-35 30 6 49 44 59 116 4 31 1 39 -20 53 -14 9 -50 18 -81 20 -31 2 -60 6 -65
9 -4 3 -13 0 -19 -6z"/>
<path d="M11377 2998 c-49 -27 -73 -44 -65 -49 16 -10 148 59 148 77 0 18 8
20 -83 -28z"/>
<path d="M4380 2969 c0 -56 -85 -102 -190 -103 -94 -1 -165 30 -193 84 l-19
35 6 -58 c4 -32 14 -73 23 -90 9 -18 12 -32 6 -34 -6 -2 -31 -17 -57 -34 -45
-28 -76 -75 -76 -115 0 -34 32 -80 77 -111 111 -75 304 -83 434 -17 131 66
133 190 4 259 -24 14 -33 24 -29 35 18 42 33 143 24 158 -8 14 -9 13 -10 -9z"/>
<path d="M11132 2864 c-62 -34 -100 -60 -96 -66 4 -7 2 -8 -5 -4 -6 4 -77 -28
-161 -74 -143 -77 -170 -86 -170 -56 0 7 -9 25 -21 40 -25 31 -81 36 -119 9
-14 -10 -43 -18 -65 -18 -34 0 -40 -3 -43 -23 -3 -16 7 -33 33 -56 32 -30 34
-34 19 -46 -10 -9 -14 -24 -12 -41 4 -23 0 -28 -24 -33 -15 -3 -28 -11 -28
-17 0 -11 16 -9 53 6 12 5 17 2 17 -12 0 -10 9 -24 20 -31 13 -8 20 -23 20
-42 0 -21 8 -35 26 -47 23 -15 25 -21 20 -56 -8 -49 12 -83 59 -103 44 -18 43
-18 38 9 -3 14 10 44 38 85 30 45 42 73 41 95 -1 18 -3 61 -4 97 -3 48 -9 74
-26 97 -22 31 -19 42 13 54 39 15 505 273 505 280 0 18 -27 8 -128 -47z m-588
-234 c10 -22 16 -48 14 -58 -5 -23 -48 44 -48 76 0 34 14 26 34 -18z"/>
<path d="M5284 2881 c-13 -13 -1 -62 21 -85 14 -15 25 -34 25 -42 0 -7 5 -14
10 -14 6 0 10 5 10 10 0 6 5 10 10 10 6 0 10 -13 10 -30 0 -24 4 -30 23 -30
51 0 62 10 75 63 16 70 15 81 -7 102 -15 13 -39 18 -96 19 -42 1 -78 -1 -81
-3z"/>
<path d="M9817 2513 c-157 -89 -166 -96 -145 -108 13 -7 44 -23 70 -37 l46
-26 154 85 c84 47 163 91 175 97 13 6 23 13 23 16 0 8 -128 70 -143 69 -6 0
-88 -43 -180 -96z"/>
<path d="M3821 2582 c-3 -66 70 -146 165 -182 161 -60 391 -36 497 51 41 34
61 67 71 118 l6 34 -22 -33 c-30 -44 -107 -96 -171 -116 -129 -39 -315 -26
-425 30 -47 24 -105 77 -115 106 -3 10 -6 7 -6 -8z"/>
<path d="M4600 2500 c-41 -99 -216 -172 -410 -173 -194 -1 -347 61 -412 168
l-18 30 0 -38 c0 -100 99 -193 246 -231 227 -58 495 3 577 131 20 31 46 143
33 143 -2 0 -9 -14 -16 -30z"/>
<path d="M11202 2509 c-12 -11 -22 -24 -22 -29 0 -6 -12 -10 -28 -10 -60 0
-72 -20 -108 -180 -9 -41 -20 -79 -24 -83 -4 -4 -19 -3 -34 3 -42 16 -47 -16
-8 -51 34 -30 28 -44 -16 -35 -103 19 -104 19 -100 -6 2 -17 21 -32 78 -60 41
-21 84 -36 95 -35 26 3 34 47 35 197 0 129 8 152 40 132 33 -20 286 -82 337
-82 41 0 100 21 193 69 20 11 43 59 36 77 -4 11 -13 9 -42 -11 -74 -50 -146
-55 -226 -14 -41 21 -54 50 -45 99 6 28 6 29 -41 27 -26 -1 -59 1 -73 5 -19 6
-31 2 -47 -13z"/>
<path d="M10228 2367 c-160 -90 -173 -99 -137 -92 13 3 25 9 27 15 2 6 8 8 12
5 5 -3 18 3 29 14 11 11 22 17 25 14 3 -4 6 -2 6 4 0 9 15 17 55 28 25 7 145
78 145 86 0 15 -11 10 -162 -74z"/>
<path d="M10040 2260 c-13 -8 -12 -10 3 -10 9 0 17 5 17 10 0 12 -1 12 -20 0z"/>
<path d="M10010 2241 c0 -6 -5 -10 -11 -8 -6 1 -14 -5 -16 -13 -4 -12 -3 -12
5 -2 5 8 12 13 16 12 4 -1 12 0 18 2 9 3 9 6 0 12 -7 4 -12 2 -12 -3z"/>
<path d="M4923 2188 c-6 -18 -19 -70 -28 -114 -22 -104 -23 -106 -63 -95 -28
8 -32 7 -32 -9 0 -11 12 -31 28 -46 l27 -26 -73 5 c-71 6 -73 5 -70 -16 2 -14
17 -29 43 -41 22 -10 57 -27 78 -38 47 -24 77 -12 77 32 0 28 2 29 38 27 33
-2 37 1 40 24 2 14 19 41 38 60 19 19 34 43 34 56 0 16 15 34 51 60 59 42 103
105 94 134 -6 18 -10 17 -68 -15 l-62 -35 -60 34 c-33 19 -65 35 -70 35 -6 0
-16 -15 -22 -32z"/>
<path d="M10646 2091 c-3 -5 -27 -19 -53 -31 -38 -18 -59 -21 -108 -17 -36 2
-70 -1 -85 -8 -14 -7 -61 -15 -104 -19 -44 -4 -93 -13 -110 -20 -32 -13 -66
-46 -48 -46 15 0 30 -48 42 -133 12 -93 39 -151 81 -172 48 -25 69 -17 91 39
39 101 58 113 203 131 150 19 201 100 142 229 -25 53 -39 67 -51 47z"/>
<path d="M10041 1558 c-23 -28 -27 -30 -73 -24 -39 5 -48 4 -48 -8 0 -27 53
-46 110 -39 l52 6 -17 -26 c-20 -31 -7 -35 25 -9 15 12 24 33 27 63 5 41 3 46
-21 57 -15 7 -28 12 -29 11 -1 0 -13 -14 -26 -31z"/>
</g>
</svg>
