<?xml version="1.0" encoding="UTF-8"?>
<svg id="Livello_1" data-name="Livello 1" xmlns="http://www.w3.org/2000/svg" version="1.1" viewBox="0 0 61.4 61.6">
  <defs>
    <style>
      .cls-1 {
        fill: #e98a2b;
      }

      .cls-1, .cls-2 {
        stroke-width: 0px;
      }

      .cls-2 {
        fill: #747776;
      }
    </style>
  </defs>
  <path class="cls-1" d="M40.1,21.3c-.4.4-.4,1.1,0,1.5l20.6,20.5c.4.4.8.3.8-.3V1.1c0-.6-.3-.7-.8-.3l-20.6,20.6Z"/>
  <path class="cls-2" d="M60.4,61.6c.6,0,.7-.3.3-.8l-29.2-29.3c-.4-.4-1.1-.4-1.5,0l-16.9,16.9c-.4.4-.8.3-.8-.3v-15.2c0-.6.3-1.4.8-1.9L43.3.8c.4-.4.3-.8-.3-.8h-15.2c-.6,0-1.4.3-1.9.8l-12.9,12.9c-.4.4-.8.3-.8-.3V1.1C12.3.5,11.8,0,11.2,0H1.1c-.6,0-1.1.5-1.1,1.1v60.4s.5,0,1.1,0h15.1c.6,0,1.4-.3,1.9-.8l11.9-11.9c.4-.4,1.1-.4,1.5,0l11.9,11.9c.4.4,1.3.8,1.9.8h15.1Z"/>
</svg>